<svg xmlns="http://www.w3.org/2000/svg" viewBox="0 0 60 60" fill="rgba(48,56,86,.9)"><path d="M37 22H12a1 1 0 0 0 0 2h25a1 1 0 0 0 0-2zm-25-6h10a1 1 0 0 0 0-2H12a1 1 0 0 0 0 2zm26 15a1 1 0 0 0-1-1H12a1 1 0 0 0 0 2h25a1 1 0 0 0 1-1zm-8 8a1 1 0 0 0-1-1H12a1 1 0 0 0 0 2h17a1 1 0 0 0 1-1zm-18 7a1 1 0 0 0 0 2h14a1 1 0 0 0 0-2H12z"/><path d="M3 2h29v14h14v17h2V14.586L33.414 0H1v60h31v-2H3V2zm31 1.414L44.586 14H34V3.414z"/><path d="M35 36v24h24V36H35zm22 22H37V38h9v12.586l-4.293-4.293-1.414 1.414L47 54.414l6.707-6.707-1.414-1.414L48 50.586V38h9v20z"/></svg>