<?xml version="1.0" encoding="utf-8"?><svg xmlns="http://www.w3.org/2000/svg" xmlns:xlink="http://www.w3.org/1999/xlink"><symbol viewBox="0 0 1792 1792" id="cogs"><path d="M832 896q0-106-75-181t-181-75-181 75-75 181 75 181 181 75 181-75 75-181zm768 512q0-52-38-90t-90-38-90 38-38 90q0 53 37.5 90.5t90.5 37.5 90.5-37.5 37.5-90.5zm0-1024q0-52-38-90t-90-38-90 38-38 90q0 53 37.5 90.5T1472 512t90.5-37.5T1600 384zm-384 421v185q0 10-7 19.5t-16 10.5l-155 24q-11 35-32 76 34 48 90 115 7 10 7 20 0 12-7 19-23 30-82.5 89.5T935 1423q-11 0-21-7l-115-90q-37 19-77 31-11 108-23 155-7 24-30 24H483q-11 0-20-7.5t-10-17.5l-23-153q-34-10-75-31l-118 89q-7 7-20 7-11 0-21-8-144-133-144-160 0-9 7-19 10-14 41-53t47-61q-23-44-35-82l-152-24q-10-1-17-9.5t-7-19.5V802q0-10 7-19.5t16-10.5l155-24q11-35 32-76-34-48-90-115-7-11-7-20 0-12 7-20 22-30 82-89t79-59q11 0 21 7l115 90q34-18 77-32 11-108 23-154 7-24 30-24h186q11 0 20 7.5t10 17.5l23 153q34 10 75 31l118-89q8-7 20-7 11 0 21 8 144 133 144 160 0 9-7 19-12 16-42 54t-45 60q23 48 34 82l152 23q10 2 17 10.5t7 19.5zm640 533v140q0 16-149 31-12 27-30 52 51 113 51 138 0 4-4 7-122 71-124 71-8 0-46-47t-52-68q-20 2-30 2t-30-2q-14 21-52 68t-46 47q-2 0-124-71-4-3-4-7 0-25 51-138-18-25-30-52-149-15-149-31v-140q0-16 149-31 13-29 30-52-51-113-51-138 0-4 4-7 4-2 35-20t59-34 30-16q8 0 46 46.5t52 67.5q20-2 30-2t30 2q51-71 92-112l6-2q4 0 124 70 4 3 4 7 0 25-51 138 17 23 30 52 149 15 149 31zm0-1024v140q0 16-149 31-12 27-30 52 51 113 51 138 0 4-4 7-122 71-124 71-8 0-46-47t-52-68q-20 2-30 2t-30-2q-14 21-52 68t-46 47q-2 0-124-71-4-3-4-7 0-25 51-138-18-25-30-52-149-15-149-31V314q0-16 149-31 13-29 30-52-51-113-51-138 0-4 4-7 4-2 35-20t59-34 30-16q8 0 46 46.5t52 67.5q20-2 30-2t30 2q51-71 92-112l6-2q4 0 124 70 4 3 4 7 0 25-51 138 17 23 30 52 149 15 149 31z"/></symbol><symbol viewBox="0 0 1792 1792" id="facebook"><path d="M1343 12v264h-157q-86 0-116 36t-30 108v189h293l-39 296h-254v759H734V905H479V609h255V391q0-186 104-288.5T1115 0q147 0 228 12z"/></symbol><symbol viewBox="0 0 1000 1000" id="google-plus"><path d="M190.5 608.1c-17.5 3.3-35.1 7.8-52.9 13.5-17.8 5.7-34.4 13.2-49.9 22.5-29.6 17.3-49.9 37.5-61 60.5-11.1 23-16.6 43.5-16.6 61.6 0 18.7 4.4 36.5 13.1 53.5s22.2 32.2 40.3 45.5c18.1 13.3 40.8 24 68.1 32 27.2 8 59 12 95.3 12 43 0 81.2-5.5 114.4-16.5 33.3-11 61-25.4 83.2-43 22.2-17.7 39-37.9 50.4-60.5 11.4-22.7 17.1-45.7 17.1-69.1 0-17.3-2.4-32.7-7.1-46s-10.9-25.3-18.7-36c-7.7-10.7-16.8-20.7-27.2-30-10.4-9.3-21-18.7-31.8-28l-36.3-28c-5.4-4.7-11.1-10.2-17.1-16.5-6-6.3-9.1-15.2-9.1-26.5s3-20.7 9.1-28c6-7.3 12.4-14.3 19.2-21 10.8-8 21.2-16.5 31.3-25.5 10.1-9 19.2-19 27.2-30 8.1-11 14.5-23.5 19.2-37.5 4.7-14 7.1-30.4 7.1-49 0-18.7-2.7-35.4-8.1-50-5.4-14.7-11.8-27.5-19.2-38.5-7.4-11-15.1-20.3-23.2-28-8.1-7.7-15.1-13.8-21.2-18.5h62.5l64.5-36H305.4c-27.6 0-57.3 3.3-89.2 10-31.9 6.7-62.3 21.7-91.2 45-21.5 18.7-37.6 39.9-48.4 63.5-10.8 23.7-16.1 47.2-16.1 70.6 0 19.4 3.7 38.5 11.1 57.5 7.4 19 18.1 35.9 32.3 50.5 14.1 14.7 31.6 26.5 52.4 35.5 20.8 9 44.7 13.5 71.6 13.5 5.4 0 10.8-.2 16.1-.5 5.4-.3 10.8-.8 16.1-1.5-2.7 6-5 11.8-7.1 17.5-2 5.7-3 12.8-3 21.5 0 15.3 3.2 28.2 9.6 38.5 6.4 10.3 13.3 20.2 20.7 29.5-11.4.7-24.9 1.7-40.3 3-15.6 1.2-32.1 3.5-49.5 6.9zM275.2 465c-21.5 0-40.2-6.2-56-18.5-15.8-12.3-28.9-27.5-39.3-45.5-10.4-18-18.1-37.4-23.2-58-5-20.7-7.6-39.4-7.6-56 0-13.3 1.5-26.4 4.5-39 3-12.7 8.9-24.3 17.6-35 8.1-10 18.5-18 31.3-24s25.9-9 39.3-9c20.8 0 39.2 6.2 54.9 18.5 15.8 12.3 29.1 27.9 39.8 46.5 10.8 18.7 18.8 38.7 24.2 60 5.4 21.3 8.1 41 8.1 59 0 9.3-1.3 21-4 35s-9.7 26.7-21.2 38c-8.1 8-18.3 14.7-30.7 20-12.4 5.3-25 8-37.7 8zm2 161.6c7.4-.3 12.1-.5 14.1-.5h12.6c3 0 6.6.3 10.6 1 18.8 13.3 35.3 25.4 49.4 36 14.1 10.7 25.5 21 34.3 31 8.7 10 15.3 20.2 19.7 30.5 4.4 10.3 6.6 21.8 6.6 34.5 0 31.4-12.6 57.2-37.8 77.6-25.2 20.4-62 30.5-110.4 30.5-54.4 0-97.6-11.3-129.6-34-31.9-22.7-47.9-52-47.9-88.1 0-18 3.5-33 10.6-45s15.3-22 24.7-30c9.4-8 19-14.2 28.7-18.5s17.3-7.5 22.7-9.5c10.8-3.3 21.8-6.2 33.3-8.5 11.4-2.3 22.2-4 32.3-5 10-1 18.7-1.7 26.1-2zM799.4 90.7h-60.5v187.1H547.4v60H739V528h60.5V337.9H990v-60H799.4V90.7z"/></symbol><symbol viewBox="0 0 1792 1792" id="lightbulb-o"><path d="M1120 576q0 13-9.5 22.5T1088 608t-22.5-9.5-9.5-22.5q0-46-54-71t-106-25q-13 0-22.5-9.5T864 448t9.5-22.5T896 416q50 0 99.5 16t87 54 37.5 90zm160 0q0-72-34.5-134t-90-101.5-123-62T896 256t-136.5 22.5-123 62-90 101.5T512 576q0 101 68 180 10 11 30.5 33t30.5 33q128 153 141 298h228q13-145 141-298 10-11 30.5-33t30.5-33q68-79 68-180zm128 0q0 155-103 268-45 49-74.5 87t-59.5 95.5-34 107.5q47 28 47 82 0 37-25 64 25 27 25 64 0 52-45 81 13 23 13 47 0 46-31.5 71t-77.5 25q-20 44-60 70t-87 26-87-26-60-70q-46 0-77.5-25t-31.5-71q0-24 13-47-45-29-45-81 0-37 25-64-25-27-25-64 0-54 47-82-4-50-34-107.5T561.5 931 487 844Q384 731 384 576q0-99 44.5-184.5t117-142 164-89T896 128t186.5 32.5 164 89 117 142T1408 576z"/></symbol><symbol viewBox="0 0 1792 1792" id="linkedin"><path d="M477 625v991H147V625h330zm21-306q1 73-50.5 122T312 490h-2q-82 0-132-49t-50-122q0-74 51.5-122.5T314 148t133 48.5T498 319zm1166 729v568h-329v-530q0-105-40.5-164.5T1168 862q-63 0-105.5 34.5T999 982q-11 30-11 81v553H659q2-399 2-647t-1-296l-1-48h329v144h-2q20-32 41-56t56.5-52 87-43.5T1285 602q171 0 275 113.5t104 332.5z"/></symbol><symbol viewBox="0 0 1792 1792" id="magic"><path d="M1254 581l293-293-107-107-293 293zm447-293q0 27-18 45L397 1619q-18 18-45 18t-45-18l-198-198q-18-18-18-45t18-45L1395 45q18-18 45-18t45 18l198 198q18 18 18 45zM350 98l98 30-98 30-30 98-30-98-98-30 98-30 30-98zm350 162l196 60-196 60-60 196-60-196-196-60 196-60 60-196zm930 478l98 30-98 30-30 98-30-98-98-30 98-30 30-98zM990 98l98 30-98 30-30 98-30-98-98-30 98-30 30-98z"/></symbol><symbol viewBox="0 0 1792 1792" id="rocket"><path d="M1504 448q0-40-28-68t-68-28-68 28-28 68 28 68 68 28 68-28 28-68zm224-288q0 249-75.5 430.5T1399 951q-81 80-195 176l-20 379q-2 16-16 26l-384 224q-7 4-16 4-12 0-23-9l-64-64q-13-14-8-32l85-276-281-281-276 85q-3 1-9 1-14 0-23-9l-64-64q-17-19-5-39l224-384q10-14 26-16l379-20q96-114 176-195 188-187 358-258t431-71q14 0 24 9.5t10 22.5z"/></symbol><symbol viewBox="0 0 1792 1792" id="twitter"><path d="M1684 408q-67 98-162 167 1 14 1 42 0 130-38 259.5T1369.5 1125 1185 1335.5t-258 146-323 54.5q-271 0-496-145 35 4 78 4 225 0 401-138-105-2-188-64.5T285 1033q33 5 61 5 43 0 85-11-112-23-185.5-111.5T172 710v-4q68 38 146 41-66-44-105-115t-39-154q0-88 44-163 121 149 294.5 238.5T884 653q-8-38-8-74 0-134 94.5-228.5T1199 256q140 0 236 102 109-21 205-78-37 115-142 178 93-10 186-50z"/></symbol></svg>