<?xml version="1.0" encoding="utf-8"?><svg xmlns="http://www.w3.org/2000/svg" xmlns:xlink="http://www.w3.org/1999/xlink"><symbol viewBox="0 0 1792 1792" id="behance"><path d="M1720 339h-511v124h511V339zm-252 426q-90 0-146 52.5T1260 960h408q-18-195-200-195zm16 585q63 0 122-32t76-87h221q-100 307-427 307-214 0-340.5-132T1009 1059q0-208 130.5-345.5T1476 576q138 0 240.5 68t153 179 50.5 248q0 17-2 47h-658q0 111 57.5 171.5T1484 1350zm-1335-50h296q205 0 205-167 0-180-199-180H149v347zm0-537h281q78 0 123.5-36.5T599 613q0-144-190-144H149v294zm-277-509h594q87 0 155 14t126.5 47.5 90 96.5T869 566q0 181-172 263 114 32 172 115t58 204q0 75-24.5 136.5t-66 103.5-98.5 71-121 42-134 13h-611V254z"/></symbol><symbol viewBox="0 0 1792 1792" id="camera"><path d="M896 672q119 0 203.5 84.5T1184 960t-84.5 203.5T896 1248t-203.5-84.5T608 960t84.5-203.5T896 672zm704-416q106 0 181 75t75 181v896q0 106-75 181t-181 75H192q-106 0-181-75t-75-181V512q0-106 75-181t181-75h224l51-136q19-49 69.5-84.5T640 0h512q53 0 103.5 35.5T1325 120l51 136h224zM896 1408q185 0 316.5-131.5T1344 960t-131.5-316.5T896 512 579.5 643.5 448 960t131.5 316.5T896 1408z"/></symbol><symbol viewBox="0 0 1792 1792" id="facebook-f"><path d="M1343 12v264h-157q-86 0-116 36t-30 108v189h293l-39 296h-254v759H734V905H479V609h255V391q0-186 104-288.5T1115 0q147 0 228 12z"/></symbol><symbol viewBox="0 0 1792 1792" id="instagram"><path d="M1490 1426V778h-135q20 63 20 131 0 126-64 232.5T1137 1310t-240 62q-197 0-337-135.5T420 909q0-68 20-131H299v648q0 26 17.5 43.5T360 1487h1069q25 0 43-17.5t18-43.5zm-284-533q0-124-90.5-211.5T897 594q-127 0-217.5 87.5T589 893t90.5 211.5T897 1192q128 0 218.5-87.5T1206 893zm284-360V368q0-28-20-48.5t-49-20.5h-174q-29 0-49 20.5t-20 48.5v165q0 29 20 49t49 20h174q29 0 49-20t20-49zm174-208v1142q0 81-58 139t-139 58H325q-81 0-139-58t-58-139V325q0-81 58-139t139-58h1142q81 0 139 58t58 139z"/></symbol><symbol viewBox="0 0 1792 1792" id="twitter"><path d="M1684 408q-67 98-162 167 1 14 1 42 0 130-38 259.5T1369.5 1125 1185 1335.5t-258 146-323 54.5q-271 0-496-145 35 4 78 4 225 0 401-138-105-2-188-64.5T285 1033q33 5 61 5 43 0 85-11-112-23-185.5-111.5T172 710v-4q68 38 146 41-66-44-105-115t-39-154q0-88 44-163 121 149 294.5 238.5T884 653q-8-38-8-74 0-134 94.5-228.5T1199 256q140 0 236 102 109-21 205-78-37 115-142 178 93-10 186-50z"/></symbol></svg>